<?xml version="1.0" standalone="no"?>
<!DOCTYPE svg PUBLIC "-//W3C//DTD SVG 20010904//EN"
 "http://www.w3.org/TR/2001/REC-SVG-20010904/DTD/svg10.dtd">
<svg version="1.0" xmlns="http://www.w3.org/2000/svg"
 width="250.000000pt" height="250.000000pt" viewBox="0 0 250.000000 250.000000"
 preserveAspectRatio="xMidYMid meet">
<metadata>
Created by potrace 1.11, written by Peter Selinger 2001-2013
</metadata>
<g transform="translate(0.000000,250.000000) scale(0.100000,-0.100000)"
fill="#000000" stroke="none">
<path d="M2004 2142 c-23 -15 -31 -45 -23 -87 10 -52 68 -185 81 -185 5 0 43
14 83 31 120 49 163 112 113 159 -23 22 -60 23 -115 5 -18 -6 -23 -3 -29 19
-11 47 -76 81 -110 58z"/>
<path d="M270 1745 l0 -45 839 0 c835 0 838 0 865 -21 14 -11 33 -34 42 -51 8
-16 44 -174 80 -351 l64 -322 0 -193 c0 -114 -4 -201 -10 -213 -10 -18 -24
-19 -306 -19 -272 0 -295 1 -300 18 -39 118 -113 204 -220 254 -61 29 -70 30
-167 26 -88 -3 -110 -7 -162 -33 -98 -48 -169 -132 -208 -247 -6 -17 -27 -18
-262 -18 l-255 0 0 -45 0 -45 292 2 291 3 11 55 c38 188 231 297 409 230 101
-38 181 -135 196 -238 l6 -47 333 -3 c368 -3 374 -2 412 61 18 29 20 51 20
253 l0 221 -60 299 c-76 377 -81 395 -130 444 -72 72 -43 70 -962 70 l-818 0
0 -45z"/>
<path d="M325 1589 c-43 -24 -45 -35 -45 -229 l0 -187 26 -24 c25 -24 28 -24
256 -27 163 -2 240 0 260 9 53 22 60 51 56 244 -4 239 21 219 -291 222 -164 2
-248 -1 -262 -8z m465 -229 l0 -150 -215 0 -215 0 0 150 0 150 215 0 215 0 0
-150z"/>
<path d="M985 1588 c-42 -24 -44 -36 -45 -229 l0 -186 26 -24 c25 -24 28 -24
247 -27 339 -5 330 -12 325 255 l-3 175 -28 24 c-28 24 -29 24 -265 24 -159
-1 -244 -4 -257 -12z m465 -228 l0 -150 -215 0 -215 0 0 150 0 150 215 0 215
0 0 -150z"/>
<path d="M1645 1588 c-45 -26 -44 -21 -45 -504 0 -452 0 -462 21 -488 l20 -26
180 0 c178 0 180 0 204 25 l25 24 0 244 c0 243 0 244 -40 453 -48 251 -45 239
-77 264 -23 18 -40 20 -147 20 -72 0 -129 -5 -141 -12z m245 -87 c0 -5 18
-103 40 -218 39 -202 40 -214 40 -421 l0 -213 -142 3 -143 3 -3 428 -2 427
105 0 c58 0 105 -4 105 -9z"/>
<path d="M1064 667 c-181 -87 -194 -332 -24 -434 47 -29 63 -33 123 -33 102 0
178 46 222 133 46 93 29 202 -44 280 -67 73 -188 96 -277 54z m205 -100 c38
-35 64 -103 56 -146 -29 -158 -227 -192 -303 -51 -50 95 5 207 113 230 42 9
105 -7 134 -33z"/>
</g>
</svg>
